<svg width="600" height="698" viewBox="0 0 600 698" fill="none" xmlns="http://www.w3.org/2000/svg">
<path d="M395.995 0C409.405 0 420.276 10.8711 420.276 24.2812C420.276 37.6913 409.405 48.5625 395.995 48.5625H388.089V243.826C388.09 269.721 395.447 295.082 409.305 316.957L590.256 602.587C616.457 643.944 586.742 697.943 537.785 697.943H62.2145C13.2574 697.943 -16.4562 643.944 9.74379 602.587L190.695 316.957C204.553 295.083 211.91 269.721 211.91 243.826V48.5625H204.005C190.594 48.5625 179.723 37.6913 179.723 24.2812C179.723 10.8711 190.594 0 204.005 0H395.995ZM317.902 415.632C310.239 415.345 302.648 416.599 295.129 419.392C287.036 422.328 279.982 426.589 273.966 432.175C268.022 437.761 263.367 444.17 260.002 451.403C256.636 458.636 254.738 466.335 254.308 474.499C253.879 482.591 255.096 490.648 257.961 498.669C260.968 506.833 265.301 513.994 270.959 520.153C276.688 526.241 283.312 531.003 290.832 534.44C298.423 537.878 306.551 539.632 315.216 539.704L347.98 629.724C348.41 630.941 348.983 631.908 349.699 632.624C350.415 633.412 351.346 634.092 352.492 634.665L373.547 644.44C374.477 644.798 375.588 644.834 376.877 644.548C378.237 644.261 379.276 643.438 379.992 642.077L398.146 602.546C398.791 601.185 398.898 599.932 398.468 598.786C398.039 597.712 397.179 596.853 395.89 596.208L371.613 584.821L387.189 551.628C387.762 550.339 387.798 549.086 387.297 547.868C386.867 546.651 385.9 545.684 384.396 544.968L351.525 529.284C363.485 518.614 371.434 506.94 375.373 494.265C379.383 481.517 379.097 468.877 374.513 456.345C372.365 450.472 369.5 445.173 365.92 440.446C362.339 435.72 358.221 431.638 353.566 428.2C351.203 435.648 347.55 442.38 342.609 448.396C337.739 454.411 331.974 459.388 325.314 463.327C325.242 466.263 324.347 468.949 322.629 471.384C320.91 473.819 318.582 475.573 315.646 476.647C311.564 478.151 307.589 477.972 303.722 476.11C299.855 474.248 297.205 471.276 295.773 467.194C294.269 463.256 294.412 459.352 296.203 455.485C297.993 451.618 300.929 448.933 305.011 447.429C307.375 446.569 309.81 446.319 312.316 446.677C314.894 447.035 317.15 447.93 319.084 449.362C324.24 446.14 328.608 442.022 332.189 437.009C335.841 431.924 338.348 426.302 339.709 420.144C332.834 417.351 325.565 415.847 317.902 415.632ZM293.625 346.667C285.103 346.667 277.046 348.314 269.455 351.608C261.935 354.831 255.311 359.343 249.582 365.144C243.853 370.873 239.341 377.533 236.047 385.124C232.824 392.644 231.213 400.7 231.213 409.294C231.213 413.09 231.535 416.813 232.179 420.466C232.732 423.285 233.458 426.019 234.352 428.668C233.313 429.618 232.302 430.608 231.32 431.638C225.519 437.725 221.079 444.886 218 453.122C215.063 461.286 213.81 469.558 214.24 477.937C214.67 486.244 216.711 494.157 220.363 501.677C224.015 509.196 229.1 515.749 235.617 521.335L202.746 611.354C202.388 612.572 202.209 613.718 202.209 614.792C202.209 615.866 202.459 616.94 202.961 618.015L213.058 639.069C213.416 640 214.204 640.788 215.422 641.433C216.639 642.077 217.928 642.041 219.289 641.325L258.713 622.849C260.002 622.204 260.861 621.273 261.291 620.056C261.792 618.91 261.72 617.728 261.076 616.511L249.797 592.126L283.097 576.765C284.315 576.12 285.138 575.189 285.568 573.972C285.998 572.754 285.89 571.394 285.246 569.89L273.966 545.183V541.853C267.235 537.842 261.219 532.578 255.92 526.062C250.62 519.545 246.502 512.204 243.566 504.04C240.415 495.375 238.875 486.638 238.947 477.829C239.019 468.949 240.522 460.427 243.459 452.263C246.466 444.099 250.799 436.651 256.457 429.919C262.114 423.116 269.025 417.422 277.189 412.839C268.094 412.696 259.608 414.271 251.73 417.565C250.346 418.15 248.993 418.778 247.672 419.45C247.011 416.23 246.681 412.844 246.681 409.294C246.681 400.485 248.758 392.536 252.912 385.446C257.065 378.285 262.687 372.591 269.777 368.366C276.867 364.141 284.78 362.028 293.517 362.028C302.254 362.028 310.203 364.141 317.365 368.366C324.526 372.591 330.22 378.285 334.445 385.446C338.742 392.536 340.89 400.485 340.89 409.294C340.89 411.084 340.783 412.946 340.568 414.88C340.425 416.813 340.138 418.568 339.709 420.144C342.215 421.075 344.614 422.256 346.906 423.688C349.198 425.049 351.418 426.553 353.566 428.2C354.425 425.336 355.106 422.256 355.607 418.962C356.18 415.668 356.466 412.445 356.466 409.294C356.466 400.7 354.819 392.644 351.525 385.124C348.231 377.533 343.683 370.873 337.882 365.144C332.153 359.414 325.493 354.903 317.902 351.608C310.311 348.314 302.218 346.667 293.625 346.667Z" fill="#D9D9D9"/>
</svg>
